<svg aria-hidden="true" style="width:0;height:0;position:absolute;overflow:hidden" xmlns="http://www.w3.org/2000/svg"><defs><symbol id="icon-youtube" viewBox="0 0 32 32"><path d="M22.251 10.986c.688.176 1.231.694 1.415 1.351.334 1.192.334 3.679.334 3.679s0 2.487-.334 3.679c-.184.658-.726 1.154-1.415 1.33-1.248.319-6.251.319-6.251.319s-5.003 0-6.251-.319c-.688-.176-1.231-.672-1.415-1.33C8 18.503 8 16.016 8 16.016s0-2.487.334-3.679a1.958 1.958 0 0 1 1.415-1.351c1.248-.319 6.251-.319 6.251-.319s5.003 0 6.251.319zm-7.887 2.772v4.516l4.182-2.258-4.182-2.258z"/></symbol><symbol id="icon-vector_27_320" viewBox="0 0 174 32"><path fill="#001414" style="fill:var(--color2,#001414)" d="M22.251 10.986c.688.176 1.231.694 1.415 1.351.334 1.192.334 3.679.334 3.679s0 2.487-.334 3.679c-.184.658-.726 1.154-1.415 1.33-1.248.319-6.251.319-6.251.319s-5.003 0-6.251-.319c-.688-.176-1.231-.672-1.415-1.33C8 18.503 8 16.016 8 16.016s0-2.487.334-3.679a1.958 1.958 0 0 1 1.415-1.351c1.248-.319 6.251-.319 6.251-.319s5.003 0 6.251.319zm-7.887 2.772v4.516l4.182-2.258-4.182-2.258z"/></symbol><symbol id="icon-vector_26_320" viewBox="0 0 171 32"><path fill="#001414" style="fill:var(--color2,#001414)" d="M22.251 10.986c.688.176 1.231.694 1.415 1.351.334 1.192.334 3.679.334 3.679s0 2.487-.334 3.679c-.184.658-.726 1.154-1.415 1.33-1.248.319-6.251.319-6.251.319s-5.003 0-6.251-.319c-.688-.176-1.231-.672-1.415-1.33C8 18.503 8 16.016 8 16.016s0-2.487.334-3.679a1.958 1.958 0 0 1 1.415-1.351c1.248-.319 6.251-.319 6.251-.319s5.003 0 6.251.319zm-7.887 2.772v4.516l4.182-2.258-4.182-2.258z"/></symbol><symbol id="icon-vector_24_1280" viewBox="0 0 577 32"><path fill="#001414" style="fill:var(--color2,#001414)" d="M22.251 10.986c.688.176 1.231.694 1.415 1.351.334 1.192.334 3.679.334 3.679s0 2.487-.334 3.679c-.184.658-.726 1.154-1.415 1.33-1.248.319-6.251.319-6.251.319s-5.003 0-6.251-.319c-.688-.176-1.231-.672-1.415-1.33C8 18.503 8 16.016 8 16.016s0-2.487.334-3.679a1.958 1.958 0 0 1 1.415-1.351c1.248-.319 6.251-.319 6.251-.319s5.003 0 6.251.319zm-7.887 2.772v4.516l4.182-2.258-4.182-2.258z"/></symbol><symbol id="icon-vector_24_768" viewBox="0 0 346 32"><path fill="#001414" style="fill:var(--color2,#001414)" d="M22.251 10.986c.688.176 1.231.694 1.415 1.351.334 1.192.334 3.679.334 3.679s0 2.487-.334 3.679c-.184.658-.726 1.154-1.415 1.33-1.248.319-6.251.319-6.251.319s-5.003 0-6.251-.319c-.688-.176-1.231-.672-1.415-1.33C8 18.503 8 16.016 8 16.016s0-2.487.334-3.679a1.958 1.958 0 0 1 1.415-1.351c1.248-.319 6.251-.319 6.251-.319s5.003 0 6.251.319zm-7.887 2.772v4.516l4.182-2.258-4.182-2.258z"/></symbol><symbol id="icon-vector_24_320" viewBox="0 0 171 32"><path fill="#001414" style="fill:var(--color2,#001414)" d="M22.251 10.986c.688.176 1.231.694 1.415 1.351.334 1.192.334 3.679.334 3.679s0 2.487-.334 3.679c-.184.658-.726 1.154-1.415 1.33-1.248.319-6.251.319-6.251.319s-5.003 0-6.251-.319c-.688-.176-1.231-.672-1.415-1.33C8 18.503 8 16.016 8 16.016s0-2.487.334-3.679a1.958 1.958 0 0 1 1.415-1.351c1.248-.319 6.251-.319 6.251-.319s5.003 0 6.251.319zm-7.887 2.772v4.516l4.182-2.258-4.182-2.258z"/></symbol><symbol id="icon-vector_22_1280" viewBox="0 0 577 32"><path fill="#001414" style="fill:var(--color2,#001414)" d="M22.251 10.986c.688.176 1.231.694 1.415 1.351.334 1.192.334 3.679.334 3.679s0 2.487-.334 3.679c-.184.658-.726 1.154-1.415 1.33-1.248.319-6.251.319-6.251.319s-5.003 0-6.251-.319c-.688-.176-1.231-.672-1.415-1.33C8 18.503 8 16.016 8 16.016s0-2.487.334-3.679a1.958 1.958 0 0 1 1.415-1.351c1.248-.319 6.251-.319 6.251-.319s5.003 0 6.251.319zm-7.887 2.772v4.516l4.182-2.258-4.182-2.258z"/></symbol><symbol id="icon-vector_22_768" viewBox="0 0 346 32"><path fill="#001414" style="fill:var(--color2,#001414)" d="M22.251 10.986c.688.176 1.231.694 1.415 1.351.334 1.192.334 3.679.334 3.679s0 2.487-.334 3.679c-.184.658-.726 1.154-1.415 1.33-1.248.319-6.251.319-6.251.319s-5.003 0-6.251-.319c-.688-.176-1.231-.672-1.415-1.33C8 18.503 8 16.016 8 16.016s0-2.487.334-3.679a1.958 1.958 0 0 1 1.415-1.351c1.248-.319 6.251-.319 6.251-.319s5.003 0 6.251.319zm-7.887 2.772v4.516l4.182-2.258-4.182-2.258z"/></symbol><symbol id="icon-vector_22_320" viewBox="0 0 174 32"><path fill="#001414" style="fill:var(--color2,#001414)" d="M22.251 10.986c.688.176 1.231.694 1.415 1.351.334 1.192.334 3.679.334 3.679s0 2.487-.334 3.679c-.184.658-.726 1.154-1.415 1.33-1.248.319-6.251.319-6.251.319s-5.003 0-6.251-.319c-.688-.176-1.231-.672-1.415-1.33C8 18.503 8 16.016 8 16.016s0-2.487.334-3.679a1.958 1.958 0 0 1 1.415-1.351c1.248-.319 6.251-.319 6.251-.319s5.003 0 6.251.319zm-7.887 2.772v4.516l4.182-2.258-4.182-2.258z"/></symbol><symbol id="icon-vector_21_1280" viewBox="0 0 577 32"><path fill="#001414" style="fill:var(--color2,#001414)" d="M22.251 10.986c.688.176 1.231.694 1.415 1.351.334 1.192.334 3.679.334 3.679s0 2.487-.334 3.679c-.184.658-.726 1.154-1.415 1.33-1.248.319-6.251.319-6.251.319s-5.003 0-6.251-.319c-.688-.176-1.231-.672-1.415-1.33C8 18.503 8 16.016 8 16.016s0-2.487.334-3.679a1.958 1.958 0 0 1 1.415-1.351c1.248-.319 6.251-.319 6.251-.319s5.003 0 6.251.319zm-7.887 2.772v4.516l4.182-2.258-4.182-2.258z"/></symbol><symbol id="icon-vector_21_768" viewBox="0 0 346 32"><path fill="#001414" style="fill:var(--color2,#001414)" d="M22.251 10.986c.688.176 1.231.694 1.415 1.351.334 1.192.334 3.679.334 3.679s0 2.487-.334 3.679c-.184.658-.726 1.154-1.415 1.33-1.248.319-6.251.319-6.251.319s-5.003 0-6.251-.319c-.688-.176-1.231-.672-1.415-1.33C8 18.503 8 16.016 8 16.016s0-2.487.334-3.679a1.958 1.958 0 0 1 1.415-1.351c1.248-.319 6.251-.319 6.251-.319s5.003 0 6.251.319zm-7.887 2.772v4.516l4.182-2.258-4.182-2.258z"/></symbol><symbol id="icon-vector_21_320" viewBox="0 0 171 32"><path fill="#001414" style="fill:var(--color2,#001414)" d="M22.251 10.986c.688.176 1.231.694 1.415 1.351.334 1.192.334 3.679.334 3.679s0 2.487-.334 3.679c-.184.658-.726 1.154-1.415 1.33-1.248.319-6.251.319-6.251.319s-5.003 0-6.251-.319c-.688-.176-1.231-.672-1.415-1.33C8 18.503 8 16.016 8 16.016s0-2.487.334-3.679a1.958 1.958 0 0 1 1.415-1.351c1.248-.319 6.251-.319 6.251-.319s5.003 0 6.251.319zm-7.887 2.772v4.516l4.182-2.258-4.182-2.258z"/></symbol><symbol id="icon-screenshot_144512_2" viewBox="0 0 19 32"><path d="M0 0h19.345v32H0V0z"/></symbol><symbol id="icon-screenshot_144512_1" viewBox="0 0 29 32"><path d="M.062 9.26 13.791 0l15.318 22.71-13.729 9.26L.062 9.26z"/></symbol><symbol id="icon-screenshot_144437_2" viewBox="0 0 26 32"><path d="M0 0h25.83v32H0V0z"/></symbol><symbol id="icon-screenshot_144437_1" viewBox="0 0 29 32"><path d="m8.298.03 20.39 6.625-8.22 25.299-20.39-6.625L8.298.03z"/></symbol><symbol id="icon-screenshot_144319_2" viewBox="0 0 66 32"><path d="M0 0h66.319v32H0V0z"/></symbol><symbol id="icon-screenshot_144319_1" viewBox="0 0 39 32"><path d="m8.377.056 30.066 17.358-8.377 14.51L0 14.566 8.377.056z"/></symbol><symbol id="icon-rectangle_86" viewBox="0 0 80 32"><path fill="#fff" style="fill:var(--color1,#fff)" d="M16 0h48c8.837 0 16 7.163 16 16s-7.163 16-16 16H16C7.163 32 0 24.837 0 16S7.163 0 16 0z"/></symbol><symbol id="icon-polygon_3_" viewBox="0 0 45 32"><path d="M24.9 3.127a3.2 3.2 0 0 0-4.999 0L1.614 26.002C-.061 28.097 1.431 31.2 4.113 31.2h36.573c2.683 0 4.174-3.103 2.5-5.198L24.899 3.127z"/></symbol><symbol id="icon-polygon_3" viewBox="0 0 45 32"><path d="M24.9 28.873a3.2 3.2 0 0 1-4.999 0L1.614 5.998C-.061 3.903 1.431.8 4.113.8h36.573c2.683 0 4.174 3.103 2.5 5.198L24.899 28.873z"/></symbol><symbol id="icon-icon-park-outline_bad-two_cool" viewBox="0 0 32 32"><path stroke-linejoin="round" stroke-linecap="round" stroke-width="2.667" d="M2.787 14.111a1.34 1.34 0 0 1 .348-1.014 1.33 1.33 0 0 1 .982-.43h2.55a1.335 1.335 0 0 1 1.334 1.334v13.333a1.334 1.334 0 0 1-1.334 1.334h-1.44a1.336 1.336 0 0 1-1.329-1.222L2.787 14.113h-.001zM12 14.25c0-.557.347-1.056.85-1.293 1.099-.519 2.972-1.561 3.817-2.969 1.089-1.816 1.294-5.097 1.327-5.848.005-.105.002-.211.016-.315.181-1.302 2.693.219 3.657 1.827.523.872.59 2.018.535 2.913-.059.957-.34 1.882-.615 2.801L21 13.324h7.238a1.319 1.319 0 0 1 1.063.528 1.332 1.332 0 0 1 .22 1.167l-3.58 12.677a1.33 1.33 0 0 1-1.284.971H13.333A1.33 1.33 0 0 1 12 27.333V14.25z"/></symbol><symbol id="icon-icon-park-outline_bad-two_bad" viewBox="0 0 32 32"><path stroke-linejoin="round" stroke-linecap="round" stroke-width="2.667" d="M2.787 17.889a1.34 1.34 0 0 0 .348 1.014 1.33 1.33 0 0 0 .982.43h2.55a1.335 1.335 0 0 0 1.334-1.334V4.666a1.334 1.334 0 0 0-1.334-1.334h-1.44a1.336 1.336 0 0 0-1.329 1.222L2.787 17.887h-.001zM12 17.75c0 .557.347 1.056.85 1.293 1.099.519 2.972 1.561 3.817 2.969 1.089 1.816 1.294 5.097 1.327 5.848.005.105.002.211.016.315.181 1.302 2.693-.219 3.657-1.827.523-.872.59-2.018.535-2.913-.059-.957-.34-1.882-.615-2.801L21 18.676h7.238a1.319 1.319 0 0 0 1.063-.528 1.332 1.332 0 0 0 .22-1.167l-3.58-12.677a1.33 1.33 0 0 0-1.284-.971H13.333A1.33 1.33 0 0 0 12 4.667V17.75z"/></symbol><symbol id="icon-group_1716" viewBox="0 0 32 32"><path d="M24 9a1 1 0 1 1-2 0 1 1 0 0 1 2 0zM16 23a7 7 0 1 1 0-14 7 7 0 0 1 0 14zm.001-2.333a4.667 4.667 0 1 0 0-9.334 4.667 4.667 0 0 0 0 9.334z"/></symbol><symbol id="icon-facebook" viewBox="0 0 32 32"><path d="M19.999 13.181h-2.952V11.52c0-.624.482-.769.821-.769h2.083V8.009l-2.869-.01c-3.184 0-3.909 2.045-3.909 3.353v1.828h-1.842v2.825h1.842v7.994h3.873v-7.994h2.614l.338-2.825z"/></symbol><symbol id="icon-eva_menu-outline" viewBox="0 0 48 32"><path d="M45.467 13.333H2.534c-1.399 0-2.533.681-2.533 1.52v.16c0 .839 1.134 1.52 2.533 1.52h42.933c1.399 0 2.533-.681 2.533-1.52v-.16c0-.839-1.134-1.52-2.533-1.52zM45.467 26.667H2.534c-1.399 0-2.533.681-2.533 1.52v.16c0 .839 1.134 1.52 2.533 1.52h42.933c1.399 0 2.533-.681 2.533-1.52v-.16c0-.839-1.134-1.52-2.533-1.52zM45.467 0H2.534C1.135 0 .001.681.001 1.52v.16c0 .839 1.134 1.52 2.533 1.52h42.933C46.866 3.2 48 2.519 48 1.68v-.16C48 .681 46.866 0 45.467 0z"/></symbol><symbol id="icon-ellipse_13" viewBox="0 0 32 32"><path d="M32 16c0 8.837-7.163 16-16 16S0 24.837 0 16 7.163 0 16 0s16 7.163 16 16z"/></symbol><symbol id="icon-ellipse_12" viewBox="0 0 32 32"><path d="M32 16c0 8.837-7.163 16-16 16S0 24.837 0 16 7.163 0 16 0s16 7.163 16 16z"/></symbol><symbol id="icon-ellipse_11" viewBox="0 0 32 32"><path d="M32 16c0 8.837-7.163 16-16 16S0 24.837 0 16 7.163 0 16 0s16 7.163 16 16z"/></symbol><symbol id="icon-ellipse_10" viewBox="0 0 32 32"><path fill="#fff" style="fill:var(--color1,#fff)" d="M32 16c0 8.837-7.163 16-16 16S0 24.837 0 16 7.163 0 16 0s16 7.163 16 16z"/></symbol><symbol id="icon-charm_circle-cross" viewBox="0 0 32 32"><path d="m20.5 11.5-9 9m0-9 9 9M16 28.5c6.904 0 12.5-5.596 12.5-12.5S22.904 3.5 16 3.5 3.5 9.096 3.5 16 9.096 28.5 16 28.5z"/></symbol><symbol id="icon-akar-icons_cross" viewBox="0 0 36 36"><path fill-rule="evenodd" clip-rule="evenodd" d="M1.283.556a2 2 0 0 0-.06 2.828L15.23 18 1.223 32.616a2 2 0 0 0 2.888 2.768L18 20.89l13.89 14.493a2 2 0 0 0 2.887-2.768L20.77 18 34.777 3.384A2 2 0 0 0 31.89.616L18 15.11 4.11.616a2 2 0 0 0-2.827-.06Z"/></symbol></defs></svg>