<!-- Generated by IcoMoon.io -->
<svg version="1.1" xmlns="http://www.w3.org/2000/svg" width="32" height="32" viewBox="0 0 32 32">
<title>facebook</title>
<path fill="#fff" d="M16 0c8.837 0 16 7.163 16 16s-7.163 16-16 16c-8.837 0-16-7.163-16-16s7.163-16 16-16z"></path>
<path fill="#001414" d="M19.999 13.181h-2.952v-1.661c0-0.624 0.482-0.769 0.821-0.769s2.083 0 2.083 0v-2.742l-2.869-0.010c-3.184 0-3.909 2.045-3.909 3.353v1.828h-1.842v2.825h1.842c0 3.626 0 7.994 0 7.994h3.873c0 0 0-4.411 0-7.994h2.614l0.338-2.825z"></path>
</svg>
