<!-- Generated by IcoMoon.io -->
<svg version="1.1" xmlns="http://www.w3.org/2000/svg" width="346" height="32" viewBox="0 0 346 32">
<title>vector_22_768</title>
<path fill="#001414" d="M22.251 10.986c0.688 0.176 1.231 0.694 1.415 1.351 0.334 1.192 0.334 3.679 0.334 3.679s0 2.487-0.334 3.679c-0.184 0.658-0.726 1.154-1.415 1.33-1.248 0.319-6.251 0.319-6.251 0.319s-5.003 0-6.251-0.319c-0.688-0.176-1.231-0.672-1.415-1.33-0.334-1.192-0.334-3.679-0.334-3.679s0-2.487 0.334-3.679c0.184-0.658 0.726-1.176 1.415-1.351 1.248-0.319 6.251-0.319 6.251-0.319s5.003 0 6.251 0.319zM14.364 13.758v4.516l4.182-2.258-4.182-2.258z"></path>
</svg>
